# xmcd CD database file
#
# Track frame offsets:
#	150
#	15904
#	33947
#	51905
#	69246
#	81723
#	99303
#	116913
#	140861
#	152555
#	176585
#	191416
#	209303
#	229643
#	248604
#
# Disc length: 3515 seconds
#
# Revision: 0
# Processed by: cddbd v1.5.2PL0 Copyright (c) Steve Scherf et al.
# Submitted via: CDex 1.51
#
DISCID=c40db90f
DTITLE=Jimmy Burns - It Ain't Right
DYEAR=2015
DGENRE=Blues
TTITLE0=Big Money Problem
TTITLE1=Will I Ever Find Somebody?
TTITLE2=Snaggletooth Mule
TTITLE3=Long As You're Mine
TTITLE4=Hard Hearted Woman
TTITLE5=My Heart Is Hangin' Heavy
TTITLE6=Crazy Crazy Crazy
TTITLE7=A String To Your Heart
TTITLE8=Rock Awhile
TTITLE9=Stand By Me
TTITLE10=Surrounded
TTITLE11=I Know You Hear Me Calling
TTITLE12=It Ain't Right
TTITLE13=Messin' With The Kid
TTITLE14=Wade In The Water
EXTD=YEAR: 2015
EXTT0=
EXTT1=
EXTT2=
EXTT3=
EXTT4=
EXTT5=
EXTT6=
EXTT7=
EXTT8=
EXTT9=
EXTT10=
EXTT11=
EXTT12=
EXTT13=
EXTT14=
PLAYORDER=
